<svg width="2000" height="1000" xmlns="http://www.w3.org/2000/svg" xmlns:xlink="http://www.w3.org/1999/xlink">
 <!-- Created with Method Draw - http://github.com/duopixel/Method-Draw/ -->

 <g>
  <title>background</title>
  <rect x="-1" y="-1" width="2882" height="2162" id="canvas_background" fill="#fff"/>
  <g id="canvasGrid" display="none">
   <rect id="svg_2" width="100%" height="100%" x="0" y="0" stroke-width="0" fill="url(#gridpattern)"/>
  </g>
 </g>
 <g>
  <title>Layer 1</title>
  <image xlink:href="./22.png" width="2000" height="1000"></image>
  <a href="https://www.baidu.com">
  <path fill="#ffffff" stroke="#000" stroke-width="1.5" stroke-opacity="null" id="svg_5" d="m893.75,471.25c0,0 2.5,0 5,0c2.5,0 5,0 7.5,0c2.5,0 5.73224,-1.76776 7.5,0c1.76776,1.76776 0,5 0,12.5c0,2.5 3.23224,0.73224 5,2.5c1.76776,1.76776 1.54327,2.69031 2.5,5c2.70599,6.53281 10,12.5 12.5,12.5c2.5,0 5,0 7.5,0c2.5,0 5,0 7.5,0c2.5,0 4.55939,3.71564 10,5c2.43311,0.57437 2.69031,1.5433 5,2.5c3.26642,1.35297 5,5 7.5,5c2.5,0 5,0 7.5,2.5c10,10 26.98718,28.05054 35,35c9.44318,8.19 22.29407,13.46716 25,20c0.95667,2.30969 2.5,2.5 5,2.5c2.5,0 7.17065,0.7215 17.5,5c14.60779,6.05078 25.73218,3.23224 27.5,5c1.76782,1.76776 2.5,2.5 5,5c2.5,2.5 5,2.5 7.5,2.5c2.5,0 5,2.5 7.5,5c5,5 10.29578,8.82037 12.5,10c7.94727,4.2533 10.73218,15.73224 12.5,17.5c1.76782,1.76776 4.72925,2.98938 22.5,12.5c19.71484,10.55109 35.24475,22.9389 40,20c2.12659,-1.31433 5.19031,-0.95673 7.5,0c3.26636,1.35297 6.37292,7.38794 15,10c2.3927,0.72449 0.73218,3.23224 2.5,5c3.53552,3.53552 17.5,0 30,0c5,0 12.5,0 15,0c2.5,0 4.48486,0.21857 10,12.5c4.58008,10.19916 7.5,15 10,15c2.5,0 5,0 15,0c7.5,0 15,0 22.5,0c5,0 7.69031,0.95673 10,0c3.26636,-1.35297 4.23364,-6.14703 7.5,-7.5c2.30969,-0.95673 6.73364,-6.14703 10,-7.5c2.30969,-0.95673 4.23364,-1.14703 7.5,-2.5c2.30969,-0.95673 5.73218,-0.73224 7.5,-2.5c1.76782,-1.76776 1.03821,-2.97192 2.5,-5c4.62256,-6.41345 10.19031,-4.04327 12.5,-5c3.26636,-1.35297 10.03223,-4.59955 12.5,-5c7.80359,-1.26636 9.23364,-3.64703 12.5,-5c2.30969,-0.95673 2.64087,-1.67249 5,-2.5c15.10547,-5.29871 18.87292,-19.88794 27.5,-22.5c2.3927,-0.72449 2.5,-2.5 5,-5c2.5,-2.5 5.46497,-6.73138 10,-10c5.73633,-4.13452 6.73364,-8.64703 10,-10c2.30969,-0.95673 2.56689,-1.9256 5,-2.5c5.44067,-1.28436 9.23364,-3.64703 12.5,-5c2.30969,-0.95673 7.19641,-1.23364 15,-2.5c7.4032,-1.20135 9.49255,-0.64124 12.5,-2.5c6.72498,-4.15625 10,-5 10,-7.5c0,-2.5 0,-5 0,-7.5c0,-2.5 0,-5 0,-7.5c0,-2.5 1.14697,-4.23358 2.5,-7.5c0.95667,-2.30969 0.73218,-3.23224 2.5,-5c1.76782,-1.76776 3.45667,-2.69031 2.5,-5c-1.35303,-3.26642 -0.73218,-8.23224 -2.5,-10c-1.76782,-1.76776 -6.14697,0.76642 -7.5,-2.5c-0.95667,-2.30969 -0.73218,-3.23224 -2.5,-5c-3.53552,-3.53552 -0.73218,-8.23224 -2.5,-10c-1.76782,-1.76776 -4.79724,-0.85205 -15,-17.5c-9.94861,-16.23343 -13.7157,-29.55939 -15,-35c-0.57434,-2.43314 -0.19031,-8.4567 -2.5,-7.5c-3.26636,1.353 -6.14697,6.73358 -7.5,10c-0.95667,2.30969 0,5 0,7.5c0,2.5 -1.54333,2.69031 -2.5,5c-1.35303,3.26642 -3.23218,3.23224 -5,5c-1.76782,1.76776 -0.73218,3.23224 -2.5,5c-1.76782,1.76776 -2.56689,3.07437 -5,2.5c-5.44067,-1.28436 -7.5,-5 -10,-7.5c-2.5,-2.5 -1.97461,-5.19611 -5,-12.5c-2.13928,-5.16464 -5,-10 -5,-12.5c0,-2.5 -2.25708,-3.06052 -7.5,-5c-19.33496,-7.15247 -39.56104,-10.24472 -42.5,-15c-1.31433,-2.12662 1.07629,-5.33249 -2.5,-15c-5.81848,-15.72882 -7.5,-17.5 -7.5,-20c0,-2.5 -1.1488,-7.63376 0,-12.5c1.2843,-5.44061 2.5,-7.5 2.5,-10c0,-2.5 -0.57434,-5.06686 0,-7.5c1.2843,-5.44061 6.14697,-9.23358 7.5,-12.5c0.95667,-2.30969 1.14697,-6.73358 2.5,-10c1.91345,-4.61938 2.5,-5 5,-5c2.5,0 1.8186,-3.71658 10,-7.5c16.51941,-7.63925 36.37292,-17.38791 45,-20c2.3927,-0.72446 3.23218,-3.23224 5,-5c1.76782,-1.76776 2.5,-2.5 2.5,-5c0,-2.5 0,-5 0,-7.5c0,-5 0,-10 0,-12.5c0,-2.5 0,-7.5 0,-15c0,-2.5 -1.2157,-9.55939 -2.5,-15c-1.1488,-4.86624 -0.73218,-10.73224 -2.5,-12.5c-1.76782,-1.76776 -5,0 -7.5,0c-2.5,0 -5,0 -10,-5c-7.5,-7.5 -10,-10 -12.5,-10c-2.5,0 -4.55933,-3.71564 -10,-5c-2.43311,-0.57439 -10,-5 -12.5,-5c-2.5,0 -4.53162,-0.51703 -10,-5c-13.94165,-11.4294 -32.68591,-24.70732 -52.5,-37.5c-7.57275,-4.88921 -7.56689,-6.92561 -10,-7.5c-5.44067,-1.28436 -11.73364,-8.647 -15,-10c-2.30969,-0.95671 -7.5,-2.5 -17.5,-5c-20,-5 -31.99255,-10.64127 -35,-12.5c-6.72498,-4.15627 -27.73291,-9.49161 -50,-20c-5.05554,-2.3858 -8.14124,-3.00751 -10,0c-4.15625,6.72499 1.03552,13.96446 -2.5,17.5c-1.76782,1.76776 -4.23364,1.147 -7.5,2.5c-2.30969,0.95671 -5.1073,1.77554 -7.5,2.5c-8.62708,2.61208 -9.65808,5.36702 -15,10c-9.44312,8.19002 -15,10 -17.5,12.5c-2.5,2.5 -5,5 -10,7.5c-10,5 -11.54333,7.69031 -12.5,10c-1.35303,3.2664 -2.32019,6.52762 -7.5,12.5c-3.66272,4.22311 -7.93274,7.13182 -10,10c-3.26868,4.53499 -1.54333,7.69031 -2.5,10c-1.35303,3.2664 -5,10 -5,17.5c0,2.5 0,5 0,10c0,2.5 0,5 0,7.5c0,2.5 -1.54333,5.19031 -2.5,7.5c-1.35303,3.26642 -2.5,5 -5,7.5c-2.5,2.5 -5,2.5 -12.5,7.5c-7.5,5 -12.05933,6.21564 -17.5,7.5c-2.43311,0.57437 -5.46497,1.73138 -10,5c-5.73633,4.13452 -15.32996,11.88828 -25,17.5c-7.7962,4.52429 -7.56689,6.92563 -10,7.5c-5.44061,1.28436 -10.19031,6.5433 -12.5,7.5c-3.26642,1.353 -7.5,5 -20,10c-12.5,5 -24.5611,5.24472 -27.5,10c-1.31433,2.12662 -3.45142,4.40762 -12.5,20c-2.80585,4.83499 -2.79584,6.32034 -5,7.5c-7.94733,4.25327 -14.55939,16.21564 -20,17.5c-2.43311,0.57437 -13.51709,5.47043 -30,15c-10.82159,6.25647 -11.54327,7.69031 -12.5,10c-1.35297,3.26642 -6.88831,12.83002 -12.5,22.5c-4.52429,7.7962 -5,12.5 -5,15c0,2.5 2.5,2.5 5,2.5c2.5,0 5,0 7.5,0c2.5,0 5,0 7.5,0c2.5,0 5.73224,1.76776 7.5,0c1.76776,-1.76776 2.5,-2.5 5,-2.5l2.5,0"/>
  </a>
 </g>
</svg>