<svg width="84" height="84" xmlns="http://www.w3.org/2000/svg">
<defs><filter color-interpolation-filters="auto" id="a"><feColorMatrix in="SourceGraphic" values="0 0 0 0 0.717647 0 0 0 0 0.117647 0 0 0 0 0.062745 0 0 0 1.000000 0"/></filter></defs>
<g transform="translate(-48 -24)"><path d="M125.75 42.375a1 1 0 0 1 1 1v61a1 1 0 0 1-1 1h-71.5a1 1 0 0 1-1-1v-61a1 1 0 0 1 1-1h71.5zm-19.545 17.4c-1.142 0-2.061.92-2.061 2.062v6.185H78.03v-6.185a2.056 2.056 0 0 0-2.061-2.061 2.056 2.056 0 0 0-2.062 2.061v8.247c0 1.142.92 2.061 2.062 2.061h30.235c1.143 0 2.062-.92 2.062-2.061v-8.247c0-1.142-.92-2.061-2.062-2.061zm10.045-27.9l4.477 8.784h-63l6.023-8.784h52.5zm-9.008-6.108l2.985 5.25h-42l4.015-5.25h35z"/></g></svg>